<svg xmlns="http://www.w3.org/2000/svg" xmlns:xlink="http://www.w3.org/1999/xlink" viewBox="0,0,256,256" width="64px" height="64px"><g fill="none" fill-rule="nonzero" stroke="none" stroke-width="1" stroke-linecap="butt" stroke-linejoin="miter" stroke-miterlimit="10" stroke-dasharray="" stroke-dashoffset="0" font-family="none" font-weight="none" font-size="none" text-anchor="none" style="mix-blend-mode: normal"><g transform="translate(21.49712,-5.1391) scale(0.5,0.5)"><rect x="136" y="40" width="8" height="16" fill="#463c4b"></rect><path d="M128,72v0c4.418,0 8,-3.582 8,-8v-32c0,-4.418 -3.582,-8 -8,-8v0c-4.418,0 -8,3.582 -8,8v32c0,4.418 3.582,8 8,8z" fill="#a5c3dc"></path><path d="M128,56v0c4.418,0 8,-3.582 8,-8v-16c0,-4.418 -3.582,-8 -8,-8v0c-4.418,0 -8,3.582 -8,8v16c0,4.418 3.582,8 8,8z" fill="#d7e6f0"></path><path d="M320,240v18.745c0,8.487 -3.371,16.626 -9.373,22.627l-0.551,0.551c-24.38,24.381 -38.076,57.447 -38.076,91.925v9.7c0,8.615 -6.621,16.028 -15.226,16.434c-9.188,0.433 -16.774,-6.889 -16.774,-15.982v-288c0,-35.346 -28.654,-64 -64,-64h-24c-4.418,0 -8,3.582 -8,8v16c0,4.418 3.582,8 8,8h24c8.837,0 16,7.163 16,16v328c0,48.601 39.399,88 88,88v0c48.601,0 88,-39.399 88,-88v-4.118c0,-12.73 5.057,-24.939 14.059,-33.941l8.569,-8.568c6.001,-6.001 14.14,-9.372 22.627,-9.372h18.745z" fill="#2d3e4b"></path><path d="M320,224v0c4.418,-4.418 11.582,-4.418 16,0l112,112c4.418,4.418 4.418,11.582 0,16v0c-4.418,4.418 -11.582,4.418 -16,0l-112,-112c-4.418,-4.418 -4.418,-11.582 0,-16z" fill="#2d3e4b"></path><path d="M320,224v0c4.418,-4.418 11.582,-4.418 16,0l48,48c4.418,4.418 4.418,11.582 0,16v0c-4.418,4.418 -11.582,4.418 -16,0l-48,-48c-4.418,-4.418 -4.418,-11.582 0,-16z" fill="#faa51e"></path><path d="M224,80c-8.836,0 -16,7.164 -16,16v288c0,13.06 5.42,25.72 14.871,34.734c8.838,8.43 20.927,13.265 33.165,13.265c0.745,0 1.495,-0.018 2.243,-0.053c25.638,-1.207 45.721,-22.467 45.721,-48.398v-9.7c0,-26.176 10.193,-50.786 28.703,-69.297l0.551,-0.551c9.183,-9.182 15.222,-20.665 17.599,-33.147l-30.853,-30.853v18.745c0,8.487 -3.371,16.626 -9.373,22.627l-0.551,0.551c-24.38,24.381 -38.076,57.447 -38.076,91.925v9.7c0,8.615 -6.621,16.028 -15.226,16.434c-9.189,0.433 -16.774,-6.889 -16.774,-15.982v-288c0,-8.836 -7.164,-16 -16,-16z" fill="#faa51e"></path><rect x="208" y="152" width="32" height="18.667" fill="#2d3e4b"></rect><circle cx="240" cy="160" r="16" fill="#d7e6f0"></circle><rect x="208" y="184" width="32" height="18.667" fill="#2d3e4b"></rect><circle cx="240" cy="192" r="16" fill="#d7e6f0"></circle><rect x="208" y="216" width="32" height="18.667" fill="#2d3e4b"></rect><circle cx="240" cy="224" r="16" fill="#d7e6f0"></circle><rect x="208" y="248" width="32" height="18.667" fill="#2d3e4b"></rect><circle cx="240" cy="256" r="16" fill="#d7e6f0"></circle></g></g></svg>